<svg width="30" height="30" viewBox="0 0 30 30" fill="none" xmlns="http://www.w3.org/2000/svg">
<path d="M30 15C30 6.71573 23.2843 0 15 0C6.71573 0 0 6.71573 0 15C0 23.2843 6.71573 30 15 30C23.2843 30 30 23.2843 30 15Z" fill="#C4C4C4"/>
<path d="M8 18.0837V21H10.9163L19.5173 12.399L16.601 9.48271L8 18.0837ZM21.7725 10.1437C22.0758 9.84044 22.0758 9.35051 21.7725 9.04722L19.9528 7.22747C19.6495 6.92418 19.1596 6.92418 18.8563 7.22747L17.4331 8.6506L20.3494 11.5669L21.7725 10.1437Z" fill="black"/>
</svg>
